PathFileType	4	(X/Y/Z)	..\data\2015026\dynamic\2015026_C5_03.trc
DataRate	CameraRate	NumFrames	NumMarkers	Units	OrigDataRate	OrigDataStartFrame	OrigNumFrames
100.000000	100.000000	4	48	mm	100.000000	119	136
Frame#	Time	L_IAS			L_IPS			R_IPS			R_IAS			L_FTC			L_FLE			L_FAX			L_TTC			L_FAL			L_FCC			L_FM1			L_FM2			L_FM5			R_FTC			R_FLE			R_FAX			R_TTC			R_FAL			R_FCC			R_FM1			R_FM2			R_FM5			CV7			TV10			SXS			SJN			L_SIA			L_SRS			L_SAA			L_SAE			L_HLE			L_HME			L_UOA			L_RSP			L_UHE			L_HM2			L_HM5			R_SIA			R_SRS			R_SAA			R_SAE			R_HLE			R_HME			R_UOA			R_RSP			R_UHE			R_HM2			R_HM5			
		X1	Y1	Z1	X2	Y2	Z2	X3	Y3	Z3	X4	Y4	Z4	X5	Y5	Z5	X6	Y6	Z6	X7	Y7	Z7	X8	Y8	Z8	X9	Y9	Z9	X10	Y10	Z10	X11	Y11	Z11	X12	Y12	Z12	X13	Y13	Z13	X14	Y14	Z14	X15	Y15	Z15	X16	Y16	Z16	X17	Y17	Z17	X18	Y18	Z18	X19	Y19	Z19	X20	Y20	Z20	X21	Y21	Z21	X22	Y22	Z22	X23	Y23	Z23	X24	Y24	Z24	X25	Y25	Z25	X26	Y26	Z26	X27	Y27	Z27	X28	Y28	Z28	X29	Y29	Z29	X30	Y30	Z30	X31	Y31	Z31	X32	Y32	Z32	X33	Y33	Z33	X34	Y34	Z34	X35	Y35	Z35	X36	Y36	Z36	X37	Y37	Z37	X38	Y38	Z38	X39	Y39	Z39	X40	Y40	Z40	X41	Y41	Z41	X42	Y42	Z42	X43	Y43	Z43	X44	Y44	Z44	X45	Y45	Z45	X46	Y46	Z46	X47	Y47	Z47	X48	Y48	Z48	

120	1.19	768.3592529296877	946.7802734375002	84.12584686279308	581.4586791992189	944.1809692382815	142.7504882812501	593.1969604492189	953.031433105469	256.3580017089845	783.8355712890627	942.8507080078127	303.9485778808595	701.1154174804689	863.9607543945315	19.16116905212411	866.5869140625002	474.1525878906251	47.93776321411144	834.4443969726565	428.3329467773439	50.43777084350597	907.0637817382815	408.510955810547	86.21419525146497	733.1205444335939	104.803207397461	78.93659973144541	687.0002441406251	64.27996063232423	125.5919189453126	872.626892089844	30.11705780029298	124.133270263672	868.9694824218752	43.45432662963868	74.72679901123058	821.985534667969	32.64332962036134	33.83488464355479	693.5194702148439	855.244812011719	368.4097290039064	654.6813964843751	459.7660522460939	283.7236938476564	621.2423095703126	402.8613281250001	287.7977600097657	669.3979492187501	387.1316223144532	231.207733154297	559.4078369140626	62.14086532592775	256.5693969726564	511.4833068847657	22.03662490844727	217.7541351318361	703.8814697265626	16.37231254577637	167.1868286132814	709.1663818359376	29.19221687316895	223.683303833008	668.3737792968751	13.38786220550537	277.2921142578126	612.7608642578126	1429.580444335938	196.2889556884767	551.6484985351564	1187.872314453125	191.1891479492188	769.787536621094	1136.499389648438	175.0469512939454	737.6931152343751	1350.448486328125	181.8199768066407	544.8480224609376	1223.123657226563	111.1555099487306	560.7711181640626	1359.170043945313	115.9911117553712	599.7630615234376	1371.246215820313	29.8444194793702	637.9873046875001	1373.041625976563	6.851376056671223	601.0242919921876	1064.611572265625	-57.32687377929682	569.0272216796876	1057.45458984375	15.35626602172859	562.2304077148439	1054.443603515625	-31.40711593627924	664.5498046875001	825.234313964844	-17.14551734924309	596.4841918945314	830.8775634765627	-54.41002655029291	677.3894042968751	741.5187377929689	-23.46042060852043	581.5759887695314	757.0038452148439	-51.3645515441894	551.9166870117189	1226.435302734375	276.0083007812501	572.5134277343751	1357.280151367188	245.2412109375001	627.2873535156251	1372.950073242188	347.4265136718751	682.6414184570314	1373.021362304688	366.2949829101564	682.4161987304689	1056.695556640625	425.0666809082033	650.5138549804689	1038.5283203125	354.7198486328126	647.5128173828126	1029.192260742188	404.1299743652345	819.7532348632815	844.9788208007815	405.8277893066409	745.0220336914064	822.0476074218752	421.8857727050784	850.0627441406252	761.3937988281251	409.2026977539065	749.2343139648439	751.5460205078126	423.657409667969	
121	1.2	785.4194946289065	943.795104980469	84.18542480468761	598.3572998046876	940.8349609375002	141.8860168457032	609.5048828125001	949.6296997070315	255.5529785156251	800.509216308594	939.7985839843752	304.2200622558595	719.3607177734376	861.0809326171877	18.69761085510263	889.5706787109377	473.7643127441407	49.72601699829114	860.161071777344	426.0847473144532	51.76356124877942	933.2882080078127	410.1718139648439	87.938690185547	783.5430297851565	95.90156555175783	77.75856018066418	739.9724121093751	52.13328933715822	124.2386932373048	927.3945922851565	31.8954200744629	122.9853515625001	922.7149658203127	45.00288009643555	73.44910430908216	876.9831542968752	31.13065338134766	32.55382537841808	708.8112792968751	852.4431762695315	367.908172607422	660.4583129882814	459.3723449707032	284.0531616210939	626.1613159179689	403.0850219726564	288.0054016113282	674.1994628906251	386.3876342773439	231.4759063720705	560.1134033203126	62.89733886718751	255.8119964599611	512.1563110351564	23.15460968017578	216.7731933593751	704.5584106445314	16.36681747436524	167.174774169922	709.6079711914064	29.19368362426759	223.7211303710939	668.5031738281251	13.65309143066407	277.1568908691407	629.6862182617189	1426.60693359375	196.5871429443361	568.3414916992189	1185.112182617188	191.3937530517579	786.6296386718752	1133.374389648438	175.1190643310548	754.5778808593751	1347.5849609375	181.7942810058595	561.6810302734376	1220.179443359375	111.5258712768556	577.5504760742189	1356.343872070313	116.480682373047	616.4015502929689	1368.40625	30.13320350646981	654.5576782226564	1370.086181640625	7.041362285614095	614.3378906250001	1062.74365234375	-57.37110519409173	581.6926879882814	1055.467529296875	14.84954833984382	575.1559448242189	1053.403198242188	-31.6594219207763	672.3331909179689	821.5909423828127	-17.88185691833488	604.7542724609376	828.8675537109377	-55.65987777709955	683.2484741210939	737.6737060546876	-23.83485984802238	588.1274414062501	755.2316894531251	-52.61201858520502	568.9285888671876	1223.678466796875	276.5240173339845	589.5700073242189	1354.553955078125	245.8442382812501	644.8225097656251	1369.972778320313	347.8890991210939	700.3522338867189	1370.117797851563	366.3750000000002	704.1082153320314	1053.945068359375	426.1317138671877	672.0280761718751	1035.111206054688	356.2701416015626	669.6025390625001	1025.39501953125	405.477752685547	848.6887207031252	847.3184814453127	404.2828369140627	774.926940917969	821.4160766601565	420.3118286132815	882.337097167969	765.1251831054689	406.5571289062502	781.9281005859377	750.9912719726564	421.0890808105471	
122	1.21	802.5413818359377	940.5998535156252	84.10560607910168	615.3383178710939	937.0527954101565	140.9570465087892	625.7442016601564	945.872985839844	254.7145996093751	817.085144042969	936.469909667969	304.4613342285158	737.6296386718751	857.8840332031252	18.21287536621103	911.706726074219	472.8000488281251	51.60848617553724	885.2715454101565	423.4494018554689	53.14242935180676	958.570007324219	411.438690185547	89.81162261962903	834.1716918945315	88.28242492675783	76.67647552490246	793.3706665039065	41.52722549438477	123.0169754028322	981.669860839844	35.16400909423829	122.2025527954103	976.0599365234377	47.90605926513673	72.45485687255872	931.7819824218752	31.01585388183594	31.58432197570813	724.0853271484376	849.469909667969	367.3466796875002	666.7944335937501	458.9355773925782	284.3015441894532	631.5879516601564	403.2947082519532	288.1270141601564	679.4890747070314	385.574432373047	231.6885833740236	560.8540039062501	63.75517654418947	255.1108856201173	512.7683715820314	24.41270256042481	215.8807067871095	705.2304077148439	16.39461708068848	167.1731414794923	710.0649414062501	29.23802947998048	223.753631591797	668.6456298828126	13.95414161682129	277.0300292968751	646.6530761718751	1423.321166992188	196.8666076660158	585.0170898437501	1182.033569335938	191.5270385742189	803.5203247070315	1129.789672851563	175.1304779052736	771.4837646484377	1344.344482421875	181.7306976318361	578.5135498046876	1216.907470703125	111.851531982422	594.3580322265626	1353.217041015625	116.9218750000001	633.0659790039064	1365.223754882813	30.37894821167001	671.1505126953126	1366.75146484375	7.173575401306237	628.0128173828126	1060.482666015625	-57.45218658447259	594.6337890625001	1053.037109375	14.33036041259773	588.5161132812501	1051.923950195313	-31.94974899291986	680.4242553710939	817.7067871093752	-18.59997749328605	613.3909301757814	826.5924072265627	-56.97035598754876	689.3810424804689	733.6483764648439	-24.16036605834953	595.0479125976564	753.2638549804689	-53.9637947082519	585.9003295898439	1220.5986328125	276.9793090820314	606.6514282226564	1351.533325195313	246.4199218750001	662.4227905273439	1366.651489257813	348.3324279785157	718.1342163085939	1366.828369140625	366.4134521484377	725.9290161132814	1050.928100585938	427.1238098144534	693.5415039062501	1031.36962890625	357.8310546875001	691.8591918945314	1021.3681640625	406.7333374023439	877.3093872070315	849.4847412109377	402.6169433593752	804.6080322265627	820.7368164062502	418.6471252441409	914.138854980469	768.7917480468752	403.8598937988284	814.301696777344	750.5084228515626	418.5027465820315	
123	1.22	819.7496337890627	937.3073730468752	83.9159393310548	632.4193115234376	932.9500732421877	139.9592895507814	641.9350585937501	941.8621826171877	253.8454895019533	833.5559082031252	932.9309082031252	304.686492919922	755.9025268554689	854.472595214844	17.71083259582529	933.0728759765627	471.3392333984376	53.55408096313489	909.7788696289065	420.5065002441407	54.56042861938489	982.9591064453127	412.3513488769532	91.80721282958997	884.5377197265627	82.04730224609376	75.76847839355482	846.6360473632815	32.57514190673829	121.9929504394533	1034.99853515625	39.81429290771485	121.8929519653322	1028.598754882813	52.0790252685547	71.85803222656264	985.9450683593752	32.23988723754884	31.03188133239759	739.3336181640626	846.3845825195315	366.7146911621095	673.7257080078126	458.4471435546876	284.4426269531251	637.5529785156251	403.4795227050782	288.1465759277345	685.2767333984376	384.6773681640626	231.8119506835939	561.5950927734376	64.72975158691408	254.5179901123048	513.2492065429689	25.84228324890137	215.1493377685548	705.8371582031251	16.42897033691407	167.1733551025392	710.5000610351564	29.29464149475098	223.7734985351564	668.7702636718751	14.24589443206787	276.9181518554689	663.6503295898439	1419.802612304688	197.1114654541017	601.6917114257814	1178.706909179688	191.5949096679689	820.4626464843752	1125.853759765625	175.0815429687501	788.409362792969	1340.80712890625	181.6255645751954	595.3493652343751	1213.372436523438	112.1543121337892	611.1886596679689	1349.848999023438	117.3126449584962	649.7421264648439	1361.762573242188	30.58378219604501	687.7459106445314	1363.112670898438	7.244328975677576	642.0443725585939	1057.871948242188	-57.54662704467767	607.8800659179689	1050.229858398438	13.82563781738289	602.3114013671876	1050.049926757813	-32.24335861206048	688.8383789062501	813.636413574219	-19.31276321411125	622.4057006835939	824.113952636719	-58.3319358825683	695.7769165039064	729.4909057617189	-24.47035026550285	602.3360595703126	751.1740112304689	-55.41422653198237	602.8358764648439	1217.285278320313	277.3970336914064	623.7544555664064	1348.285766601563	246.9496459960939	680.0646362304689	1363.089721679688	348.7319335937501	735.9565429687501	1363.272583007813	366.3921508789064	747.8674926757814	1047.769775390625	428.0187988281252	715.0434570312501	1027.423095703125	359.358367919922	714.2696533203126	1017.22900390625	407.8753967285159	905.5425415039065	851.5039672851565	400.8063964843752	833.9760742187502	820.0667114257815	416.8955383300784	945.369323730469	772.390075683594	401.127624511719	846.2378540039065	750.1455688476564	415.9436950683596	
